<?xml version="1.0" encoding="UTF-8" standalone="no"?>
<!-- Created with Inkscape (http://www.inkscape.org/) -->

<svg
   version="1.1"
   id="svg2"
   width="1054.2133"
   height="335.65332"
   viewBox="0 0 1054.2133 335.65332"
   sodipodi:docname="logoGS_ua_left_brown.eps"
   xmlns:inkscape="http://www.inkscape.org/namespaces/inkscape"
   xmlns:sodipodi="http://sodipodi.sourceforge.net/DTD/sodipodi-0.dtd"
   xmlns="http://www.w3.org/2000/svg"
   xmlns:svg="http://www.w3.org/2000/svg">
  <defs
     id="defs6" />
  <sodipodi:namedview
     id="namedview4"
     pagecolor="#F1EFE6"
     bordercolor="#000000"
     borderopacity="0.25"
     inkscape:showpageshadow="2"
     inkscape:pageopacity="0.0"
     inkscape:pagecheckerboard="0"
     inkscape:deskcolor="#d1d1d1" />
  <g
     id="g8"
     inkscape:groupmode="layer"
     inkscape:label="ink_ext_XXXXXX"
     transform="matrix(1.3333333,0,0,-1.3333333,0,335.65333)">
    <g
       id="g10"
       transform="scale(0.1)">
      <path
         d="M 219.965,1859.66 H 0 v 557.88 c 84.6602,-38.35 125.898,-122.28 125.898,-255.42 0,-46.31 -4.339,-96.96 -15.918,-178.73 h 118.668 l -3.621,153.4 c -2.168,55.72 -10.851,174.39 -10.851,191.03 0,70.91 26.769,134.58 77.422,189.57 50.648,-54.99 77.422,-118.66 77.422,-189.57 0,-16.64 -8.684,-135.31 -10.852,-191.03 l -3.617,-153.4 h 118.664 c -11.578,81.77 -15.918,132.42 -15.918,178.73 0,133.14 41.242,217.07 125.902,255.42 V 1859.66 H 363.23 c -15.195,-43.41 -39.792,-88.27 -71.632,-126.62 -31.836,38.35 -56.438,83.21 -71.633,126.62"
         style="fill:#3e392c;fill-opacity:1;fill-rule:nonzero;stroke:none"
         id="path12" />
      <path
         d="m 1514.43,2366.16 v -92.61 h -228.64 v -413.89 h -101.3 v 506.5 h 329.94"
         style="fill:#3e392c;fill-opacity:1;fill-rule:nonzero;stroke:none"
         id="path14" />
      <path
         d="m 1778.55,2097 v 12.3 c 0.72,45.58 -30.39,72.35 -83.94,72.35 -53.54,0 -84.65,-26.77 -84.65,-73.08 V 2097 Z m -81.04,167.87 c 110.71,0 178,-60.06 178,-160.64 v -82.48 h -265.55 v -13.03 c 0,-47.03 30.39,-72.36 86.1,-72.36 43.42,0 68.02,13.03 71.64,36.18 h 98.4 c -4.34,-72.36 -71.63,-120.11 -172.21,-120.11 -113.6,0 -180.17,60.06 -180.17,164.25 v 72.36 c 0,104.92 74.53,175.83 183.79,175.83"
         style="fill:#3e392c;fill-opacity:1;fill-rule:nonzero;stroke:none"
         id="path16" />
      <path
         d="m 2067.26,2257.63 v -155.57 h 151.95 v 155.57 h 97.68 v -397.97 h -97.68 v 155.57 h -151.95 v -155.57 h -97.68 v 397.97 h 97.68"
         style="fill:#3e392c;fill-opacity:1;fill-rule:nonzero;stroke:none"
         id="path18" />
      <path
         d="m 2675.8,2097 v 12.3 c 0.72,45.58 -30.39,72.35 -83.93,72.35 -53.55,0 -84.66,-26.77 -84.66,-73.08 V 2097 Z m -81.04,167.87 c 110.71,0 178,-60.06 178,-160.64 v -82.48 h -265.55 v -13.03 c 0,-47.03 30.39,-72.36 86.11,-72.36 43.41,0 68.01,13.03 71.63,36.18 h 98.4 c -4.34,-72.36 -71.63,-120.11 -172.21,-120.11 -113.6,0 -180.17,60.06 -180.17,164.25 v 72.36 c 0,104.92 74.53,175.83 183.79,175.83"
         style="fill:#3e392c;fill-opacity:1;fill-rule:nonzero;stroke:none"
         id="path20" />
      <path
         d="m 3047.72,1937.81 c 54.27,0 85.39,29.67 85.39,81.76 v 78.15 c 0,52.1 -31.12,81.76 -85.39,81.76 -54.99,0 -85.38,-29.66 -85.38,-81.76 v -78.15 c 0,-52.09 30.39,-81.76 85.38,-81.76 z m -83.21,-44.13 v -157.02 h -97.68 v 520.97 h 83.94 l 6.51,-44.86 c 26.77,33.28 66.57,52.1 117.22,52.1 94.78,0 156.29,-63.68 156.29,-168.6 v -75.25 c 0,-102.02 -63.68,-168.59 -159.91,-168.59 -44.86,0 -80.32,14.47 -106.37,41.25"
         style="fill:#3e392c;fill-opacity:1;fill-rule:nonzero;stroke:none"
         id="path22" />
      <path
         d="m 3436.3,1930.57 c 57.16,0 96.96,31.84 96.96,77.43 v 27.5 l -87.56,-12.31 c -40.51,-5.78 -61.5,-20.98 -61.5,-46.31 v -6.51 c 0,-26.05 18.81,-39.8 52.1,-39.8 z m -147.61,34.73 v 5.8 c 0,60.05 40.52,102.74 120.11,115.77 l 124.46,20.26 v 65.84 h -206.22 v 84.66 h 301.73 v -397.97 h -83.94 l -6.51,46.31 c -28.22,-34.01 -70.91,-53.54 -121.56,-53.54 -79.59,0 -128.07,41.97 -128.07,112.87"
         style="fill:#3e392c;fill-opacity:1;fill-rule:nonzero;stroke:none"
         id="path24" />
      <path
         d="m 3698.24,1945.77 h 28.22 c 15.92,0 28.22,7.96 30.39,27.5 l 5.79,54.99 c 5.07,49.2 7.96,103.47 7.96,152.67 v 76.7 h 309.69 v -397.97 h -97.68 v 311.87 h -118.67 c -0.72,-46.31 -4.34,-96.24 -9.41,-142.55 l -7.23,-68.02 c -7.24,-63.67 -38.35,-101.3 -91.89,-101.3 h -57.17 v 86.11"
         style="fill:#3e392c;fill-opacity:1;fill-rule:nonzero;stroke:none"
         id="path26" />
      <path
         d="m 4360.32,1938.53 c 36.18,0 54.27,13.75 54.27,41.25 v 12.3 c 0,28.22 -18.09,41.97 -54.27,41.97 h -74.52 v -95.52 z m -171.49,319.1 h 96.97 V 2109.3 h 82.48 c 91.17,0 143.99,-42.69 143.99,-116.5 v -15.19 c 0,-72.36 -55.71,-117.95 -143.99,-117.95 h -179.45 v 397.97"
         style="fill:#3e392c;fill-opacity:1;fill-rule:nonzero;stroke:none"
         id="path28" />
      <path
         d="m 4690.29,2257.63 v -155.57 h 151.94 v 155.57 h 97.69 v -397.97 h -97.69 v 155.57 h -151.94 v -155.57 h -97.69 v 397.97 h 97.69"
         style="fill:#3e392c;fill-opacity:1;fill-rule:nonzero;stroke:none"
         id="path30" />
      <path
         d="m 5048.46,2257.63 h 96.24 v -248.18 l 161.35,248.18 h 95.52 v -397.97 h -96.24 v 107.09 141.82 l -161.36,-248.91 h -95.51 v 397.97"
         style="fill:#3e392c;fill-opacity:1;fill-rule:nonzero;stroke:none"
         id="path32" />
      <path
         d="m 5546.29,2437.8 139.65,-55.72 136.76,55.72 v -86.1 l -138.2,-56.44 -138.21,54.99 z m -36.18,-180.17 h 96.23 v -248.18 l 161.36,248.18 h 95.52 v -397.97 h -96.24 v 107.09 141.82 l -161.36,-248.91 h -95.51 v 397.97"
         style="fill:#3e392c;fill-opacity:1;fill-rule:nonzero;stroke:none"
         id="path34" />
      <path
         d="m 6448.59,2380.64 v -434.87 h 122.28 v 311.86 h 97.69 v -397.97 h -537.62 v 397.97 h 97.69 v -311.86 h 122.28 v 434.87 h 97.68"
         style="fill:#3e392c;fill-opacity:1;fill-rule:nonzero;stroke:none"
         id="path36" />
      <path
         d="M 7075.95,2170.8 H 6951.5 v -311.14 h -97.69 v 311.14 h -125.17 v 86.83 h 347.31 v -86.83"
         style="fill:#3e392c;fill-opacity:1;fill-rule:nonzero;stroke:none"
         id="path38" />
      <path
         d="m 7247.45,1930.57 c 57.16,0 96.96,31.84 96.96,77.43 v 27.5 l -87.55,-12.31 c -40.53,-5.78 -61.5,-20.98 -61.5,-46.31 v -6.51 c 0,-26.05 18.81,-39.8 52.09,-39.8 z m -147.61,34.73 v 5.8 c 0,60.05 40.53,102.74 120.12,115.77 l 124.45,20.26 v 65.84 h -206.22 v 84.66 h 301.73 v -397.97 h -83.93 l -6.51,46.31 c -28.22,-34.01 -70.91,-53.54 -121.56,-53.54 -79.59,0 -128.08,41.97 -128.08,112.87"
         style="fill:#3e392c;fill-opacity:1;fill-rule:nonzero;stroke:none"
         id="path40" />
      <path
         d="m 7723.58,1937.81 c 54.27,0 85.38,28.94 85.38,81.76 v 32.57 c 0,52.82 -31.11,81.76 -85.38,81.76 -54.99,0 -86.1,-28.94 -86.1,-81.76 v -32.57 c 0,-52.82 31.11,-81.76 86.1,-81.76 z m -69.46,400.14 218.51,60.78 V 2309 l -194.64,-52.82 c -33.29,-9.41 -49.93,-29.66 -49.93,-61.5 v -31.84 c 27.5,34.01 69.46,53.54 120.12,53.54 99.85,0 158.46,-63.67 158.46,-173.65 v -12.3 c 0,-107.82 -71.63,-178 -183.78,-178 -115.05,0 -181.62,65.12 -181.62,178 v 149.05 c 0,78.15 39.79,138.21 112.88,158.47"
         style="fill:#3e392c;fill-opacity:1;fill-rule:nonzero;stroke:none"
         id="path42" />
      <path
         d="m 1141.8,1134.61 v 20.26 h 96.23 v -11.58 c 0,-49.93 36.18,-74.53 104.92,-74.53 65.84,0 95.51,20.99 95.51,69.46 v 10.13 c 0,38.35 -32.56,61.51 -86.83,61.51 h -80.32 v 59.34 l 133.87,139.65 h -247.47 v 88.99 h 365.41 v -78.86 L 1393.6,1282.95 c 88.28,-4.35 143.99,-53.55 143.99,-130.98 v -18.09 c 0,-96.95 -76.7,-151.22 -198.98,-151.22 -121.56,0 -196.81,56.43 -196.81,151.95"
         style="fill:#3e392c;fill-opacity:1;fill-rule:nonzero;stroke:none"
         id="path44" />
      <path
         d="m 1790.85,1069.48 c 54.28,0 85.39,28.95 85.39,81.77 v 32.56 c 0,52.82 -31.11,81.77 -85.39,81.77 -54.99,0 -86.1,-28.95 -86.1,-81.77 v -32.56 c 0,-52.82 31.11,-81.77 86.1,-81.77 z m -69.46,400.15 218.52,60.78 v -89.73 l -194.64,-52.82 c -33.28,-9.41 -49.92,-29.66 -49.92,-61.5 v -31.84 c 27.49,34.01 69.46,53.54 120.11,53.54 99.85,0 158.46,-63.67 158.46,-173.65 v -12.31 c 0,-107.81 -71.63,-177.998 -183.79,-177.998 -115.05,0 -181.61,65.118 -181.61,177.998 v 149.06 c 0,78.15 39.79,138.21 112.87,158.47"
         style="fill:#3e392c;fill-opacity:1;fill-rule:nonzero;stroke:none"
         id="path46" />
      <path
         d="m 2245.99,1069.48 c 54.27,0 85.38,29.67 85.38,81.77 v 78.15 c 0,52.1 -31.11,81.76 -85.38,81.76 -54.99,0 -85.38,-29.66 -85.38,-81.76 v -78.15 c 0,-52.1 30.39,-81.77 85.38,-81.77 z m -83.21,-44.14 V 868.328 h -97.68 v 520.982 h 83.93 l 6.52,-44.86 c 26.76,33.28 66.56,52.1 117.21,52.1 94.79,0 156.29,-63.68 156.29,-168.6 v -75.25 c 0,-102.02 -63.67,-168.598 -159.9,-168.598 -44.87,0 -80.32,14.476 -106.37,41.238"
         style="fill:#3e392c;fill-opacity:1;fill-rule:nonzero;stroke:none"
         id="path48" />
      <path
         d="m 2696.07,1070.93 c 57.89,0 90.45,31.11 90.45,85.38 v 68.02 c 0,54.27 -32.56,85.38 -90.45,85.38 -57.89,0 -90.44,-31.11 -90.44,-85.38 v -68.02 c 0,-54.27 32.55,-85.38 90.44,-85.38 z m -188.85,91.17 v 56.44 c 0,107.82 73.8,178.01 188.85,178.01 119.39,0 188.85,-65.13 188.85,-178.01 v -56.44 c 0,-107.81 -73.8,-177.998 -188.85,-177.998 -119.39,0 -188.85,65.118 -188.85,177.998"
         style="fill:#3e392c;fill-opacity:1;fill-rule:nonzero;stroke:none"
         id="path50" />
      <path
         d="m 3015.18,1569.48 139.65,-55.72 136.75,55.72 v -86.1 l -138.2,-56.44 -138.2,54.99 z M 2979,1389.31 h 96.23 v -248.19 l 161.36,248.19 h 95.51 V 991.34 h -96.23 v 107.09 141.82 L 3074.51,991.34 H 2979 v 397.97"
         style="fill:#3e392c;fill-opacity:1;fill-rule:nonzero;stroke:none"
         id="path52" />
      <path
         d="m 3538.33,1389.31 v -155.57 h 151.95 v 155.57 h 97.68 V 991.34 h -97.68 v 155.57 H 3538.33 V 991.34 h -97.69 v 397.97 h 97.69"
         style="fill:#3e392c;fill-opacity:1;fill-rule:nonzero;stroke:none"
         id="path54" />
      <path
         d="m 3896.51,1389.31 h 96.23 v -248.19 l 161.36,248.19 h 95.5 V 991.34 h -96.23 v 107.09 141.82 L 3992.02,991.34 h -95.51 v 397.97"
         style="fill:#3e392c;fill-opacity:1;fill-rule:nonzero;stroke:none"
         id="path56" />
      <path
         d="m 4426.17,1212.03 -104.2,177.28 h 109.99 l 78.14,-154.12 h 17.37 l 78.14,154.12 h 108.54 L 4608.5,1212.03 4719.21,991.34 h -109.25 l -76.7,157.01 h -36.18 l -76.7,-157.01 h -104.19 l 109.98,220.69"
         style="fill:#3e392c;fill-opacity:1;fill-rule:nonzero;stroke:none"
         id="path58" />
      <path
         d="m 5147.58,1506.53 c 129.52,0 209.84,-67.29 209.84,-184.51 v -12.31 h -101.3 v 9.41 c 0,60.06 -40.52,96.24 -107.09,96.24 -69.46,0 -112.15,-44.14 -112.15,-115.05 v -111.43 c 0,-68.02 42.69,-115.05 112.15,-115.05 65.13,0 107.09,34.73 107.09,96.23 v 9.41 h 101.3 v -13.02 c 0,-110.72 -81.76,-183.79 -209.11,-183.79 -132.42,0 -213.45,80.31 -213.45,214.18 v 95.51 c 0,127.35 81.76,214.18 212.72,214.18"
         style="fill:#3e392c;fill-opacity:1;fill-rule:nonzero;stroke:none"
         id="path60" />
      <path
         d="m 5451.49,1389.31 h 96.24 v -248.19 l 161.35,248.19 h 95.52 V 991.34 h -96.25 v 107.09 141.82 L 5547,991.34 h -95.51 v 397.97"
         style="fill:#3e392c;fill-opacity:1;fill-rule:nonzero;stroke:none"
         id="path62" />
      <path
         d="m 5874.07,1077.44 h 28.22 c 15.92,0 28.21,7.96 30.39,27.5 l 5.78,54.99 c 5.07,49.2 7.96,103.48 7.96,152.68 v 76.7 h 309.69 V 991.34 h -97.68 v 311.87 h -118.67 c -0.72,-46.31 -4.33,-96.24 -9.4,-142.55 l -7.24,-68.02 c -7.24,-63.67 -38.35,-101.3 -91.89,-101.3 h -57.16 v 86.1"
         style="fill:#3e392c;fill-opacity:1;fill-rule:nonzero;stroke:none"
         id="path64" />
      <path
         d="m 1247.44,629.512 102.02,-287.981 h 61.5 l 0.73,2.899 c 15.19,56.429 34,117.211 53.54,172.929 l 39.08,112.153 h 104.19 l -50.65,-142.543 c -19.54,-55 -39.08,-115.778 -54.27,-171.489 l -52.82,-192.468 h -99.85 l 34.73,125.898 H 1278.55 L 1138.9,629.512 h 108.54"
         style="fill:#3e392c;fill-opacity:1;fill-rule:nonzero;stroke:none"
         id="path66" />
      <path
         d="m 1649.76,520.98 h 96.23 V 363.961 h 44.86 l 107.09,157.019 h 104.19 L 1889.98,363.23 2014.44,123.012 h -107.09 l -81.76,157.008 h -79.6 V 123.012 h -96.23 V 520.98"
         style="fill:#3e392c;fill-opacity:1;fill-rule:nonzero;stroke:none"
         id="path68" />
      <path
         d="m 2259.74,201.148 c 54.26,0 85.38,29.672 85.38,81.774 v 78.148 c 0,52.102 -31.12,81.75 -85.38,81.75 -54.99,0 -85.38,-29.648 -85.38,-81.75 v -78.148 c 0,-52.102 30.39,-81.774 85.38,-81.774 z m -83.22,-44.136 V 0 h -97.68 v 520.98 h 83.94 l 6.51,-44.859 c 26.77,33.277 66.57,52.09 117.22,52.09 94.78,0 156.29,-63.68 156.29,-168.59 v -75.25 c 0,-102.019 -63.67,-168.601 -159.91,-168.601 -44.86,0 -80.32,14.48 -106.37,41.242"
         style="fill:#3e392c;fill-opacity:1;fill-rule:nonzero;stroke:none"
         id="path70" />
      <path
         d="m 2648.31,193.922 c 57.16,0 96.96,31.828 96.96,77.418 v 27.5 l -87.55,-12.301 c -40.52,-5.801 -61.51,-20.988 -61.51,-46.309 v -6.519 c 0,-26.039 18.81,-39.789 52.1,-39.789 z m -147.61,34.726 v 5.793 c 0,60.047 40.52,102.75 120.12,115.77 l 124.45,20.258 v 65.851 h -206.22 v 84.66 h 301.73 V 123.012 h -83.93 l -6.52,46.308 c -28.22,-34.011 -70.91,-53.55 -121.56,-53.55 -79.59,0 -128.07,41.968 -128.07,112.878"
         style="fill:#3e392c;fill-opacity:1;fill-rule:nonzero;stroke:none"
         id="path72" />
      <path
         d="m 3038.33,678.711 h 100.58 v -92.609 h -100.58 z m 15.2,-157.731 V 123.012 h -97.69 V 520.98 Z m -183.07,157.731 h 100.58 v -92.609 h -100.58 v 92.609"
         style="fill:#3e392c;fill-opacity:1;fill-rule:nonzero;stroke:none"
         id="path74" />
      <path
         d="M 3266.26,520.98 V 365.398 h 151.95 V 520.98 h 97.68 V 123.012 h -97.68 V 278.578 H 3266.26 V 123.012 h -97.68 V 520.98 h 97.68"
         style="fill:#3e392c;fill-opacity:1;fill-rule:nonzero;stroke:none"
         id="path76" />
      <path
         d="m 3624.44,520.98 h 96.23 V 272.789 l 161.36,248.191 h 95.51 V 123.012 h -96.23 v 107.09 141.82 l -161.36,-248.91 h -95.51 V 520.98"
         style="fill:#3e392c;fill-opacity:1;fill-rule:nonzero;stroke:none"
         id="path78" />
    </g>
  </g>
</svg>
