<svg width="271" height="51" viewBox="0 0 271 51" fill="none" xmlns="http://www.w3.org/2000/svg">
<g clip-path="url(#clip0_114_3963)">
<path d="M76.4177 18.7224H72.711V6.73964L68.3789 18.7224H64.4963L60.1642 6.73964V18.7224H56.4575V1.73417H62.0208L66.4832 14.0269L70.9 1.73417H76.4177V18.7224Z" fill="#EFDBB2"/>
<path d="M80.7042 5.30858H84.235V18.7159H80.7042V5.30858ZM80.5674 0.566895H84.3653V3.6071H80.5674V0.566895Z" fill="#EFDBB2"/>
<path d="M100.352 5.30857V18.7224H96.8209V13.4862H91.6094V18.7224H88.0785V5.30857H91.6094V10.2679H96.8209V5.30857H100.352Z" fill="#EFDBB2"/>
<path d="M104.195 5.30858H107.733V18.7159H104.195V5.30858ZM104.065 0.566895H107.863V3.6071H104.065V0.566895Z" fill="#EFDBB2"/>
<path d="M110.644 12.0089C110.644 7.85414 113.381 5.08432 117.491 5.08432C120.533 5.08432 122.879 6.55497 123.628 9.10716L120.273 10.136C120.096 9.51893 119.724 8.97819 119.212 8.59776C118.701 8.21733 118.08 8.0185 117.446 8.0322C115.491 8.0322 114.267 9.55561 114.267 11.9891C114.267 14.4226 115.504 15.946 117.446 15.946C118.08 15.9597 118.701 15.7609 119.212 15.3805C119.724 15 120.096 14.4593 120.273 13.8422L123.628 14.8711C122.879 17.4167 120.533 18.8939 117.491 18.8939C113.381 18.8939 110.644 16.1241 110.644 11.9627" fill="#EFDBB2"/>
<path d="M137.008 8.52684H132.416V18.7224H128.878V8.52684H124.292V5.30857H137.008V8.52684Z" fill="#EFDBB2"/>
<path d="M141.204 10.5844H147.431C147.08 8.88295 146.018 7.94649 144.383 7.94649C143.628 7.9245 142.89 8.17929 142.306 8.66399C141.722 9.1487 141.331 9.83068 141.204 10.5844ZM144.65 15.9922C145.327 16.0197 146.001 15.8977 146.627 15.6346C147.252 15.3715 147.814 14.9737 148.272 14.4688L150.435 16.6187C149.678 17.3977 148.768 18.0069 147.763 18.4068C146.759 18.8067 145.682 18.9884 144.604 18.9401C140.012 18.9401 137.673 15.9922 137.673 12.0089C137.673 7.90031 140.318 5.08432 144.383 5.08432C148.448 5.08432 150.962 7.80798 150.962 12.0089C150.966 12.4019 150.923 12.794 150.832 13.1762H141.158C141.276 14.0074 141.704 14.7617 142.352 15.285C143.001 15.8083 143.823 16.0612 144.65 15.9922Z" fill="#EFDBB2"/>
<path d="M163.327 12.0088C163.327 9.55554 162.134 8.05192 160.148 8.05192C158.161 8.05192 157.014 9.57533 157.014 12.0088C157.014 14.4423 158.161 15.9657 160.148 15.9657C162.134 15.9657 163.327 14.4423 163.327 12.0088ZM166.903 12.0088C166.903 16.1702 164.61 18.94 161.255 18.94C160.484 18.9567 159.717 18.8058 159.008 18.4975C158.299 18.1893 157.664 17.7307 157.144 17.1528V23.1871H153.614V5.30849H156.793L156.969 7.18142C157.467 6.51231 158.116 5.97306 158.861 5.60836C159.607 5.24367 160.427 5.064 161.255 5.08425C164.695 5.08425 166.903 7.80791 166.903 12.0088Z" fill="#EFDBB2"/>
<path d="M168.675 12.0089C168.675 7.85414 171.411 5.08432 175.515 5.08432C178.564 5.08432 180.903 6.55497 181.652 9.10716L178.297 10.136C178.122 9.51776 177.75 8.97573 177.238 8.59496C176.727 8.21419 176.104 8.01624 175.469 8.0322C173.515 8.0322 172.29 9.55561 172.29 11.9891C172.29 14.4226 173.528 15.946 175.469 15.946C176.104 15.962 176.727 15.764 177.238 15.3833C177.75 15.0025 178.122 14.4604 178.297 13.8422L181.652 14.8711C180.903 17.4167 178.564 18.8939 175.515 18.8939C171.411 18.8939 168.675 16.1241 168.675 11.9627" fill="#EFDBB2"/>
<path d="M195.032 8.52684H190.44V18.7224H186.909V8.52684H182.316V5.30857H195.032V8.52684Z" fill="#EFDBB2"/>
<path d="M205.325 14.6072C205.325 13.6641 204.674 13.0838 203.469 13.0838H200.602V16.0383H203.56C204.706 16.0383 205.325 15.4975 205.325 14.6072ZM200.602 10.6503H203.423C204.576 10.6503 205.104 10.248 205.104 9.33131C205.104 8.41462 204.53 8.01234 203.469 8.01234H200.602V10.6503ZM208.856 15.0358C208.856 17.4496 207.006 18.7421 203.911 18.7421H197.286V5.33484H203.423C206.608 5.33484 208.504 6.44937 208.504 8.86308C208.531 9.50689 208.357 10.143 208.006 10.6806C207.655 11.2182 207.145 11.63 206.55 11.8571C207.239 12.0383 207.846 12.4521 208.271 13.0301C208.697 13.6081 208.914 14.3156 208.889 15.0358" fill="#EFDBB2"/>
<path d="M220.784 12.0089C220.784 9.50945 219.481 8.05199 217.468 8.05199C215.455 8.05199 214.159 9.52923 214.159 12.0089C214.159 14.4885 215.462 15.9658 217.468 15.9658C219.474 15.9658 220.784 14.4885 220.784 12.0089ZM210.537 12.0089C210.537 7.85414 213.318 5.08432 217.468 5.08432C221.618 5.08432 224.399 7.80798 224.399 12.0089C224.399 16.2098 221.618 18.9401 217.468 18.9401C213.318 18.9401 210.537 16.2164 210.537 12.0089Z" fill="#EFDBB2"/>
<path d="M65.5148 39.4763C65.5148 36.9768 64.2119 35.5194 62.2054 35.5194C60.199 35.5194 58.8896 36.9966 58.8896 39.4763C58.8896 41.9559 60.1925 43.4332 62.2054 43.4332C64.2184 43.4332 65.5148 41.9559 65.5148 39.4763ZM55.2676 39.4763C55.2676 35.3215 58.0557 32.5517 62.2054 32.5517C66.3551 32.5517 69.1368 35.2754 69.1368 39.4763C69.1368 43.6772 66.3551 46.4074 62.2054 46.4074C58.0557 46.4074 55.2676 43.6838 55.2676 39.4763Z" fill="#EFDBB2"/>
<path d="M80.8823 40.1952C80.8823 38.0914 79.7357 36.8978 77.84 36.8978C75.9444 36.8978 74.7457 38.1046 74.7457 40.1952C74.7457 42.2858 75.9834 43.4926 77.84 43.4926C79.6967 43.4926 80.8823 42.2396 80.8823 40.2282M84.5499 40.2282C84.5499 43.8949 81.8138 46.4405 77.84 46.4405C73.5992 46.4405 71.0781 43.4926 71.0781 38.619C71.0781 33.7454 73.0324 30.7976 77.0844 29.9007L80.2243 29.1884C80.4315 29.1662 80.6256 29.0752 80.7764 28.9297C80.9272 28.7842 81.0263 28.5923 81.0582 28.3839L81.195 27.8431L84.5043 28.4234L84.4587 28.918C84.1981 30.8371 83.1558 31.8263 81.3253 32.2682L77.4166 33.0728C74.9867 33.5674 74.1008 34.5962 73.9705 36.6933C74.5134 35.9401 75.2346 35.337 76.0678 34.9394C76.9011 34.5419 77.8196 34.3626 78.739 34.4181C82.1852 34.4181 84.5694 36.8318 84.5694 40.2282" fill="#EFDBB2"/>
<path d="M96.2954 39.4763C96.2954 36.9768 94.9925 35.5194 92.9861 35.5194C90.9796 35.5194 89.6702 36.9966 89.6702 39.4763C89.6702 41.9559 90.9731 43.4332 92.9861 43.4332C94.999 43.4332 96.2954 41.9559 96.2954 39.4763ZM86.0482 39.4763C86.0482 35.3215 88.8364 32.5517 92.9861 32.5517C97.1358 32.5517 99.9044 35.2754 99.9044 39.4763C99.9044 43.6772 97.1227 46.4074 92.973 46.4074C88.8234 46.4074 86.0352 43.6838 86.0352 39.4763" fill="#EFDBB2"/>
<path d="M112.327 39.4764C112.327 37.0231 111.135 35.5195 109.148 35.5195C107.161 35.5195 106.015 37.0429 106.015 39.4764C106.015 41.9099 107.161 43.4333 109.148 43.4333C111.135 43.4333 112.327 41.9099 112.327 39.4764ZM115.904 39.4764C115.904 43.6377 113.604 46.4075 110.249 46.4075C109.479 46.4237 108.714 46.2726 108.006 45.9643C107.298 45.656 106.663 45.1977 106.145 44.6203V50.6546H102.614V32.7496H105.767L105.943 34.6226C106.441 33.9544 107.089 33.4157 107.833 33.051C108.577 32.6864 109.397 32.5062 110.223 32.5254C113.669 32.5254 115.878 35.2491 115.878 39.45" fill="#EFDBB2"/>
<path d="M127.916 39.4763C127.916 36.9768 126.614 35.5194 124.601 35.5194C122.588 35.5194 121.291 36.9966 121.291 39.4763C121.291 41.9559 122.594 43.4332 124.601 43.4332C126.607 43.4332 127.916 41.9559 127.916 39.4763ZM117.669 39.4763C117.669 35.3215 120.451 32.5517 124.601 32.5517C128.75 32.5517 131.538 35.2754 131.538 39.4763C131.538 43.6772 128.757 46.4074 124.601 46.4074C120.444 46.4074 117.669 43.6838 117.669 39.4763Z" fill="#EFDBB2"/>
<path d="M146.509 32.776V46.1833H142.971V40.9536H137.76V46.1833H134.229V32.776H137.76V37.7353H142.971V32.776H146.509Z" fill="#EFDBB2"/>
<path d="M162.495 32.776V46.1833H159.049V37.9134L153.616 46.1833H150.131V32.776H153.57V41.0459L159.003 32.776H162.495Z" fill="#EFDBB2"/>
<path d="M188.477 29.1688L183.448 41.8638C182.431 44.5479 181.018 46.3813 178.19 46.3813C177.634 46.399 177.08 46.3034 176.561 46.1003C176.042 45.8972 175.569 45.5906 175.169 45.1989C174.769 44.8071 174.452 44.3381 174.234 43.8196C174.017 43.3011 173.904 42.7437 173.904 42.1804L176.868 41.422C176.907 42.675 177.441 43.3411 178.366 43.3411C178.604 43.3598 178.843 43.3162 179.06 43.2146C179.277 43.113 179.464 42.9567 179.604 42.7607L172.008 29.1688H176.249L181.148 39.061L184.548 29.1688H188.477Z" fill="#EFDBB2"/>
<path d="M194.62 40.4856L192.893 42.1804V46.1637H189.363V32.7498H192.893V38.1114L197.929 32.7498H202.346L197.089 38.0257L202.522 46.1637H198.372L194.62 40.4856Z" fill="#EFDBB2"/>
<path d="M214.222 39.4501C214.222 36.9968 213.029 35.4932 211.043 35.4932C209.056 35.4932 207.909 37.0166 207.909 39.4501C207.909 41.8836 209.056 43.407 211.043 43.407C213.029 43.407 214.222 41.8836 214.222 39.4501ZM217.805 39.4501C217.805 43.6115 215.505 46.3813 212.15 46.3813C211.379 46.398 210.612 46.2471 209.903 45.9388C209.194 45.6306 208.559 45.172 208.039 44.5941V50.6283H204.509V32.7498H207.688L207.864 34.6227C208.362 33.9536 209.011 33.4144 209.756 33.0497C210.502 32.685 211.322 32.5053 212.15 32.5256C215.596 32.5256 217.805 35.2492 217.805 39.4501Z" fill="#EFDBB2"/>
<path d="M227.609 40.9274V39.7667C226.895 40.0938 226.134 40.3052 225.355 40.3932C223.987 40.6174 222.703 40.8416 222.703 42.1342C222.703 43.0311 223.322 43.5653 224.423 43.5653C226.195 43.5653 227.609 42.4046 227.609 40.9274ZM232.286 43.0773V46.1439C231.856 46.215 231.419 46.2459 230.983 46.2362C229.355 46.2362 228.469 45.6097 228.202 44.2577C227.66 44.9594 226.961 45.5199 226.162 45.8927C225.363 46.2655 224.488 46.4398 223.609 46.4011C221.003 46.4011 219.283 44.8381 219.283 42.5101C219.283 39.0281 222.508 38.4016 224.983 38.085C226.482 37.9069 227.674 37.6827 227.674 36.8781C227.674 36.0736 226.788 35.4471 225.29 35.4471C224.613 35.448 223.943 35.5876 223.32 35.8573C222.698 36.127 222.136 36.5214 221.668 37.0166L219.55 34.8272C220.347 34.0692 221.284 33.4775 222.307 33.086C223.329 32.6945 224.418 32.5108 225.511 32.5453C228.957 32.5453 230.983 34.2402 230.983 37.0562V42.3321C230.965 42.4367 230.972 42.5442 231.003 42.6455C231.035 42.7469 231.09 42.839 231.164 42.9142C231.238 42.9893 231.329 43.0451 231.429 43.077C231.529 43.1088 231.636 43.1157 231.739 43.0971L232.286 43.0773Z" fill="#EFDBB2"/>
<path d="M237.674 28.0082H241.296V31.0484H237.674V28.0082ZM235.159 32.7498H238.69V46.1439H235.159V32.7498ZM232.553 28.0082H236.175V31.0484H232.553V28.0082Z" fill="#EFDBB2"/>
<path d="M254.807 32.7498V46.1637H251.276V40.9274H246.064V46.1637H242.533V32.7498H246.064V37.7091H251.276V32.7498H254.807Z" fill="#EFDBB2"/>
<path d="M270.793 32.7498V46.1637H267.347V37.8872L261.92 46.1637H258.429V32.7498H261.875V41.0198L267.308 32.7498H270.793Z" fill="#EFDBB2"/>
<path d="M0 16.7239V0.879395H34.7436V16.7239C34.7436 27.3785 29.5387 37.2367 17.3586 42.207C5.20493 37.2367 0 27.351 0 16.7239ZM14.5844 30.2893C15.1656 32.0742 16.1168 33.8865 17.385 35.4792C18.6532 33.8865 19.6044 32.0742 20.1856 30.2893H28.7989V7.52476C24.915 9.33713 23.8846 13.4836 23.8846 17.9322C23.8846 20.3761 24.2016 22.9299 24.4922 25.264H19.8157L20.0007 18.9757C20.0535 16.6965 20.1856 14.3898 20.3442 12.1381C20.6084 8.81539 19.6044 5.90461 17.3586 3.40573C15.1392 5.90461 14.1088 8.81539 14.373 12.1381C14.558 14.3623 14.6901 16.6965 14.7165 18.9757L14.9014 25.264H10.2249C10.542 22.9574 10.8326 20.4036 10.8326 17.9322C10.8326 13.4836 9.8286 9.33713 5.9183 7.52476V30.2618H14.5844V30.2893Z" fill="#EFDBB2"/>
</g>
<defs>
<clipPath id="clip0_114_3963">
<rect width="271" height="51" fill="white"/>
</clipPath>
</defs>
</svg>
